<svg width="30px" height="30px" viewBox="0 0 1024 1024" xmlns="http://www.w3.org/2000/svg">
  <path d="M694.76 150.73c8.47-9.27 207.7 4.16 199.23 13.4l-214.06 234.05a22.7 22.7 0 0 1-32.1 1.44l-81.65-74.68c-9.24-8.44-9.88-22.83-1.41-32.06l129.99-142.13z" fill="#FF4893" />
  <path d="M671.27 426.94c15.22 13.91 16.27 37.56 2.37 52.78l-352.23 385.13c-13.94 15.22-37.56 16.27-52.81 2.37l-134.33-122.89c-15.25-13.94-16.3-37.56-2.37-52.78l352.23-385.13c13.91-15.25 37.56-16.3 52.78-2.37l134.37 122.89z" fill="#8B87C1" />
  <path d="M293.8 899.38c-14.94 0-29.25-5.55-40.3-15.62L119.15 760.84a59.35 59.35 0 0 1-19.38-41.42 59.27 59.27 0 0 1 15.62-42.99L467.61 291.32a59.81 59.81 0 0 1 44.09-19.44c14.96 0 29.28 5.57 40.32 15.68l134.35 122.88a59.33 59.33 0 0 1 19.36 41.41 59.36 59.36 0 0 1-15.58 42.98L337.91 879.96a59.96 59.96 0 0 1-44.11 19.41z m217.9-582.74c-4.26 0-8.18 1.73-11.04 4.87L148.4 706.65a14.86 14.86 0 0 0-3.92 10.77 14.89 14.89 0 0 0 4.87 10.39l134.34 122.89a14.99 14.99 0 0 0 10.11 3.91 14.89 14.89 0 0 0 11.1-4.88l352.22-385.12a14.9 14.9 0 0 0 3.9-10.78 14.86 14.86 0 0 0-4.85-10.38l-134.37-122.89a14.88 14.88 0 0 0-10.1-3.94z" fill="#4F46A3" />
  <path d="M663.16 427.94a45.02 45.02 0 0 1-30.42-11.82l-81.66-74.69a44.74 44.74 0 0 1-14.6-31.24 44.78 44.78 0 0 1 11.8-32.45l129.97-142.12c7.55-8.26 17.74-10.4 49.54-10.4 27.55 0 68.79 2.08 105.05 5.31 18.32 1.63 34.03 3.44 45.43 5.24 17.79 2.8 30.83 5.77 36.41 18.46a23.2 23.2 0 0 1-4.18 25.01l-214.05 234.03a45.18 45.18 0 0 1-33.28 14.67z m43.7-257.28L581.29 307.97c0.003 0.003-0.01 0.44-0.003 0.45l81.87 74.77a0.29 0.29 0 0 0 0.25-0.12l188.13-205.69c-34.25-3.8-87.31-7.4-123.76-7.4-11.03 0-17.42 0.36-20.92 0.68z m-65.12 54.12a22.38 22.38 0 0 1-16.51-37.48l168.28-184.02a22.38 22.38 0 0 1 31.62-1.41 22.38 22.38 0 0 1 1.41 31.62l-168.28 184.01a22.32 22.32 0 0 1-16.52 7.28zM361.38 743.69a22.38 22.38 0 0 1-16.52-37.47l11.51-12.6a22.38 22.38 0 0 1 31.61-1.43 22.38 22.38 0 0 1 1.43 31.61l-11.51 12.6a22.32 22.32 0 0 1-16.53 7.29z" fill="#4F46A3" />
</svg>
